<svg width="200" height="200" viewBox="0 0 200 200" fill="none" xmlns="http://www.w3.org/2000/svg">
<path d="M100.29 200C106.997 200 112.442 194.878 112.442 188.55C112.442 182.231 112.442 177.109 112.442 177.109C145.619 174.07 167.582 156.546 167.582 128.038V127.572C167.582 98.5984 148.889 85.2822 111.741 76.6399V49.537C117.089 50.8439 122.627 52.696 128.04 55.0984C136.751 58.9597 147.337 56.5394 152.626 47.8929C157.919 39.2515 155.06 27.1131 145.254 22.7109C135.49 18.3324 124.774 15.3161 112.904 14.0185V7.00671C112.904 3.14117 107.467 0 100.756 0C94.045 0 88.6042 2.98407 88.6042 6.6509C88.6042 10.3322 88.6042 13.3111 88.6042 13.3111C52.8497 15.8842 32.7577 35.0429 32.7577 62.6129V63.0842C32.7577 92.0537 51.9164 104.912 89.5366 113.549V141.591C80.5114 140.136 71.6755 137.138 62.6825 132.547C53.1028 127.66 41.3669 129.388 35.5609 137.969C29.7507 146.546 32.0971 158.731 41.755 163.469C55.9442 170.439 71.9804 174.993 88.1329 176.647V188.328C88.138 194.772 93.5788 200 100.29 200ZM111.5 117.291C123.657 120.792 127.158 124.303 127.158 130.607V131.078C127.158 137.854 122.253 141.822 111.5 142.995V117.291ZM73.8792 59.5736V59.1074C73.8792 53.034 78.3222 48.3591 89.7676 47.4267V72.664C77.1545 69.1576 73.8792 65.6471 73.8792 59.5736Z" fill="#6BE686"/>
</svg>
